<svg xmlns="http://www.w3.org/2000/svg" xmlns:xlink="http://www.w3.org/1999/xlink" width="719.901" height="433.444" viewBox="0 0 719.901 433.444"><defs><linearGradient id="a" x1="1.153" y1="-0.411" x2="0.253" y2="1.158" gradientUnits="objectBoundingBox"><stop offset="0" stop-color="#e0cbee"/><stop offset="1" stop-color="#f4dfff"/></linearGradient><linearGradient id="b" x1="0.057" y1="1.101" x2="0.96" y2="0.236" gradientUnits="objectBoundingBox"><stop offset="0" stop-color="#d8c7f5"/><stop offset="1" stop-color="#fbf9ff"/></linearGradient></defs><g transform="translate(-1566.735 -227.788)"><g transform="translate(1566.735 227.788)"><path d="M2101.06,633.508l-515.07-1.87c1.139-86.82,22.649-217.579,105.831-243.486,97.829-30.469,205.188-25.107,281.612-101.277,86.044-85.755,326.775-85.848,326.775,66.113,0,139.432,20.173,189.144-15.5,236.976C2256.029,628.422,2147.761,635,2101.06,633.508Z" transform="translate(-1585.99 -229.046)" fill="url(#a)"/><path d="M1601.52,662.038s1.6-164.568,98.071-190.382,207.122-21.684,286.179-89.378c47.217-40.431,121.809-50.78,181.666-45.924,30.344,2.46,62.325,9.407,87.9,26.736,45.654,30.938,48.949,107.758,43.958,156.987-9.894,97.6-103.649,144-193.582,143.694Z" transform="translate(-1590.43 -259.406)" fill="url(#b)"/></g><g transform="translate(1724.964 255.327)"><g transform="translate(365.399 13.445)"><path d="M2348.642,369.5h-24.864v-6.781h24.864a25.053,25.053,0,0,0,25.023-25.024V276.342a25.053,25.053,0,0,0-25.023-25.025h-24.864v-6.781h24.864a31.841,31.841,0,0,1,31.8,31.805v61.349A31.84,31.84,0,0,1,2348.642,369.5Z" transform="translate(-2323.778 -244.537)" fill="#164a6f"/></g><circle cx="108.039" cy="108.039" r="108.039" transform="translate(65.258 258.664) rotate(-68.931)" fill="#164a6f"/><circle cx="108.039" cy="108.039" r="108.039" transform="matrix(0.371, -0.929, 0.929, 0.371, 94.274, 256.961)" fill="#c0ccf4"/><path d="M2140.915,357.873a108.083,108.083,0,0,1-121.3,167.076,108.05,108.05,0,1,0,121.3-167.076Z" transform="translate(-1871.426 -263.493)" fill="#96aaed"/><g transform="translate(0 262.69)"><path d="M2315.539,757.794h-401.83L1894.5,667.077h444.672Z" transform="translate(-1835.657 -614.578)" fill="#343d59"/><path d="M2355.162,757.794H2043.026l-15.089-90.717h349.385Z" transform="translate(-1873.803 -614.578)" fill="#7cb1d7"/><path d="M2048.575,757.794h312.137l22.16-90.717h-66.739c-76.62,28.788-188.6,67.926-268.781,83.352Z" transform="translate(-1879.354 -614.578)" fill="#456e8c"/><rect width="514.229" height="13.892" transform="translate(0 47.868)" fill="#164a6f"/><g transform="translate(99.27)"><path d="M1977.753,641.561h186.338l2.1-28.118S2024.758,628.131,1993.7,623.1s-20.145-25.076-26.755-25.076h0a5.368,5.368,0,0,0-5.254,6.469l7.772,37.073Z" transform="translate(-1954.102 -594.836)" fill="#25265d"/><g transform="translate(328.66 9.217)"><path d="M2445,623.645s-22.841-.35-31.229-1.979c-3.246-.631-.2,1.05-1.388,3.9a14.545,14.545,0,0,0-.758,8.388c1.669,9.081,11.514,9.389,11.514,9.389l30.032-3.063Z" transform="translate(-2411.34 -610.775)" fill="#fc7575"/><path d="M2461.546,640.928l-8.172-16.64s-6.079-.077-12.733-.5c-.206,4.343,2.169,9.8,9.336,15.589q1.6,1.291,3.165,2.411Z" transform="translate(-2419.714 -611.418)" fill="#fd5e5a"/><path d="M2488.006,645.666c5.507-2,13.184-20.165,10.347-24.783a28.8,28.8,0,0,0-12.516-8.158c-7.843-2.463-13.516-4.618-13.516-4.618l-1.669,2.617s-2.166-.411-4.9-.726c-.361,2.732-.64,6.97.459,10.066,0,0-2.988-3.621-2.929-10.3-2.812-.208-5.722-.193-7.318.5-5.673,2.463-10.263,12.853,2.5,24.628S2482.5,647.667,2488.006,645.666Z" transform="translate(-2422.473 -606.937)" fill="#fc7575"/><path d="M2487.813,638.117a14.5,14.5,0,0,0,2.67-12.776c-2-7.543,1.086-10.083,2.67-8.62,0,0-.167-6.618,5.674-9.082s23.529-1.847,20.192,9.851-11.347,9.337-11.347,9.337,3.838,3.748,1.836,7.288-4.84,3.078-4.84,3.078-6.508,3.234-7.342,7.7-10.513,4-10.513,4-2,2.617-9.011.77-17.855-12.715-21.193-12.715c0,0,4.339-2.678,11.181-.523s10.847,2.155,10.847-.154S2487.813,638.117,2487.813,638.117Z" transform="translate(-2424.281 -606.468)" fill="#0b1742"/><path d="M2479.571,645.98s5.758.75,5.758,2.424-.626,3.232-3.88,2.827-6.884-2.135-5.382-4.328A2.524,2.524,0,0,1,2479.571,645.98Z" transform="translate(-2429.745 -617.659)" fill="#fc7575"/><path d="M2515.327,665.008a2.579,2.579,0,0,0,1.5-1.251c.88-1.91-1.017-4.46-2.331-6.141l.369-.285a13.051,13.051,0,0,1,3.342,4.013,4.017,4.017,0,0,1-2.168,5.612Z" transform="translate(-2440.832 -621.009)" fill="#0b1742"/><path d="M2502.446,662.93a8.371,8.371,0,0,0,3.264-.066c5.279-1.22,4.819-7.15,4.976-7.439h.329c-.065.167,1.7,8.58-6.82,9.783a9.582,9.582,0,0,1-2.267.094Z" transform="translate(-2437.238 -620.464)" fill="#0b1742"/><path d="M2482.494,647.413s1.953.976,1.674,1.85-4.2,1.071-5.849-.481S2479.374,645.923,2482.494,647.413Z" transform="translate(-2430.345 -617.986)" fill="#fd5e5a"/></g><path d="M2234.44,599.9v41.968h141.852s-1.678-27.7-35.252-41.968S2234.44,599.9,2234.44,599.9Z" transform="translate(-2032.108 -593.562)" fill="#f7931e"/><path d="M2153.441,643.78V606.848s-133.127,19.81-165.564,20.25c-8.786.118-14.939.885-18.361-2.1-8.831-7.7-8.457-24.762-13.22-24.762h0a5.185,5.185,0,0,0-5.035,6.421l9.22,37.6Z" transform="translate(-1951.109 -595.47)" fill="#2775a1"/><path d="M2224.081,648.673c-12.591,2.2-22.977,0-30.846,0s-18.885,7.554-18.885,7.554h112.825c-.259-5.863-.734-11.725-.959-17.587C2258.337,642.758,2230.3,647.584,2224.081,648.673Z" transform="translate(-2014.93 -606.449)" fill="#fc7575"/><path d="M2392.565,630.484c-4.619-2.044-33.01,1.433-61.566,5.652.225,5.862.7,11.724.959,17.587H2403.9S2401.693,634.523,2392.565,630.484Z" transform="translate(-2059.713 -603.945)" fill="#fbb03b"/></g><rect width="422.636" height="13.892" transform="translate(91.593 47.868)" fill="#c0ccf4"/></g><rect width="38.396" height="213.109" transform="translate(219.794 49.448)" fill="#b4bbf3"/><rect width="52.348" height="213.109" transform="translate(234.673 49.448)" fill="#f1f9f4"/><path d="M2193.063,294.953c1.192,69.307.944,142.2.628,213.747l-52.976-.638c27.608-.35,7.247-.221,52.347-.633l-.632.633C2192.151,438.666,2191.812,367.691,2193.063,294.953Z" transform="translate(-1906.042 -245.505)" fill="#164a6f"/><g transform="translate(265.893 0.918)"><rect width="128.619" height="110.423" fill="#b4bbf3"/><rect width="110.423" height="110.423" transform="translate(18.196)" fill="#fdffe1"/><path d="M35.2,0h0A35.195,35.195,0,0,1,70.39,35.195V91.577a0,0,0,0,1,0,0H0a0,0,0,0,1,0,0V35.2A35.2,35.2,0,0,1,35.2,0Z" transform="translate(52.686 18.846)" fill="#4256e1"/></g><path d="M2119.883,275.525l46.1-48.53V337.418l-46.1,35.458Z" transform="translate(-1900.089 -226.077)" fill="#b4bbf3"/><path d="M2295.306,452.687h-65.87a13.723,13.723,0,0,1-13.723-13.723h93.316A13.724,13.724,0,0,1,2295.306,452.687Z" transform="translate(-1927.485 -286.675)" fill="#1d202a"/><rect width="105.586" height="41.27" transform="translate(271.438 111.341)" fill="#164a6f"/><rect width="85.243" height="41.27" transform="translate(303.727 111.341)" fill="#7392a9"/><rect width="117.532" height="5.591" transform="translate(271.438 111.341)" fill="#164a6f" opacity="0.4"/><path d="M2414.883,713.082H2257.312V680.046h136.261l21.31,21.311Z" transform="translate(-1939.377 -355.596)" fill="#164a6f"/><path d="M2418.76,701.135H2270.876V680.046h126.8l21.088,21.088Z" transform="translate(-1943.255 -355.596)" fill="#7cb1d7"/><rect width="12.471" height="5.328" transform="translate(339.851 328.063)" fill="#164a6f"/><rect width="12.472" height="5.328" transform="translate(355.591 328.063)" fill="#164a6f"/><rect width="12.471" height="5.328" transform="translate(371.333 328.063)" fill="#164a6f"/><path d="M2374.657,689.181a1.362,1.362,0,1,1-1.362-1.363A1.362,1.362,0,0,1,2374.657,689.181Z" transform="translate(-1972.146 -357.818)" fill="#16e26f"/><path d="M2384.406,689.181a1.362,1.362,0,1,1-1.362-1.363A1.362,1.362,0,0,1,2384.406,689.181Z" transform="translate(-1974.932 -357.818)" fill="#16e26f"/><path d="M2394.156,689.181a1.362,1.362,0,1,1-1.362-1.363A1.362,1.362,0,0,1,2394.156,689.181Z" transform="translate(-1977.72 -357.818)" fill="#16e26f"/><path d="M2403.906,689.181a1.362,1.362,0,1,1-1.362-1.363A1.362,1.362,0,0,1,2403.906,689.181Z" transform="translate(-1980.507 -357.818)" fill="#16e26f"/><path d="M2413.655,689.181a1.362,1.362,0,1,1-1.362-1.363A1.362,1.362,0,0,1,2413.655,689.181Z" transform="translate(-1983.294 -357.818)" fill="#16e26f"/><path d="M2423.405,689.181a1.362,1.362,0,1,1-1.363-1.363A1.363,1.363,0,0,1,2423.405,689.181Z" transform="translate(-1986.081 -357.818)" fill="#16e26f"/><path d="M2433.153,689.181a1.362,1.362,0,1,1-1.361-1.363A1.361,1.361,0,0,1,2433.153,689.181Z" transform="translate(-1988.869 -357.818)" fill="#16e26f"/><path d="M2442.9,689.181a1.362,1.362,0,1,1-1.362-1.363A1.362,1.362,0,0,1,2442.9,689.181Z" transform="translate(-1991.656 -357.818)" fill="#16e26f"/><path d="M2165.221,225.71l-46.371,48.816-.253.265V488.266h1.835V275.524l45.577-47.979h128.225V225.71Z" transform="translate(-1899.722 -225.71)" fill="#465177"/></g></g></svg>